<svg width="100%" height="100%" viewBox="0 0 185 29" fill="none" xmlns="http://www.w3.org/2000/svg">
<path d="M0.554 28L12.314 0.784H16.598L28.778 28H24.074L20.966 20.986H8.198L5.174 28H0.554ZM9.71 17.038H19.538L14.456 5.698L9.71 17.038ZM34.2419 28V0.994H52.7639C55.0879 0.994 56.8939 1.736 58.1819 3.22C59.4979 4.704 60.1559 6.552 60.1559 8.764C60.1559 10.836 59.6099 12.6 58.5179 14.056C57.4259 15.484 55.8019 16.282 53.6459 16.45H53.0999L59.7779 28H54.9059L48.2699 16.492H38.6099V28H34.2419ZM38.6099 12.46H52.7639C54.7799 12.46 55.7879 11.242 55.7879 8.806C55.7879 7.742 55.5219 6.846 54.9899 6.118C54.4859 5.362 53.7439 4.984 52.7639 4.984H38.6099V12.46ZM78.1611 0.447999C81.4931 0.447999 84.2931 1.428 86.5611 3.388C88.8571 5.348 90.3691 7.882 91.0971 10.99L91.1811 11.452H86.4351L86.3511 11.158C85.8191 9.282 84.8111 7.742 83.3271 6.538C81.8711 5.306 80.1491 4.69 78.1611 4.69C75.5571 4.69 73.4851 5.67 71.9451 7.63C70.4051 9.59 69.6351 11.872 69.6351 14.476C69.6351 17.08 70.3911 19.362 71.9031 21.322C73.4431 23.254 75.5291 24.22 78.1611 24.22C80.1491 24.22 81.8851 23.618 83.3691 22.414C84.8531 21.21 85.8471 19.67 86.3511 17.794L86.4351 17.5H91.1811L91.0971 17.962C90.3691 21.07 88.8571 23.618 86.5611 25.606C84.2931 27.566 81.4931 28.546 78.1611 28.546C74.1291 28.546 70.9231 27.16 68.5431 24.388C66.1631 21.616 64.9731 18.326 64.9731 14.518C64.9731 12.054 65.4771 9.772 66.4851 7.672C67.4931 5.544 69.0191 3.808 71.0631 2.464C73.1071 1.12 75.4731 0.447999 78.1611 0.447999ZM93.8645 28L105.625 0.784H109.909L122.089 28H117.385L114.277 20.986H101.509L98.4845 28H93.8645ZM103.021 17.038H112.849L107.767 5.698L103.021 17.038ZM127.552 0.994H140.278C144.226 0.994 147.404 2.31 149.812 4.942C152.248 7.546 153.466 10.724 153.466 14.476C153.466 18.2 152.248 21.392 149.812 24.052C147.404 26.684 144.226 28 140.278 28H127.552V0.994ZM140.278 24.01C142.882 24.01 144.954 23.072 146.494 21.196C148.062 19.32 148.846 17.094 148.846 14.518C148.846 11.914 148.062 9.674 146.494 7.798C144.954 5.922 142.882 4.984 140.278 4.984H131.92V24.01H140.278ZM159.996 0.994H184.86V4.984H164.364V12.46H179.61V16.492H164.364V24.01H184.86V28H159.996V0.994Z" fill="white"/>
</svg>
